<svg xmlns="http://www.w3.org/2000/svg" viewBox="0 0 52.46 101.09"><path fill="#8069f2" d="M22,1.58c-.58.44-.68,1.06-.82,5.26-.14,4-.27,4.88-.79,5.46a14.37,14.37,0,0,1-3.76,1.91C10.64,16.54,6.2,20.37,4,25.08.16,33.21,1.22,41.72,6.85,47.73c3.55,3.79,7.34,6.08,15.51,9.39,5.77,2.32,8.54,3.76,10.31,5.26A7.24,7.24,0,0,1,34.86,71c-1.71,3.76-7.34,5.84-13.49,5A46,46,0,0,1,9.28,72.49c-3-1.43-4.2-1.64-4.78-.92-.48.55-3,9.09-3.35,11C.94,84,1,84.18,2,85.07c1.81,1.71,8.16,3.86,14.38,4.85,3.62.62,3.79.82,3.79,5.6,0,6.56.27,6.8,7.14,6.63,5.91-.14,5.64.17,5.84-6.39.2-6,.27-6.11,3.72-7.24a22,22,0,0,0,9.94-6.11c5.29-5.26,7.51-11.54,6.49-18.31a23.27,23.27,0,0,0-9.19-15.3c-2-1.47-7.41-4.17-12.4-6.22-6.39-2.6-9.43-4.44-11-6.59-2.29-3.11-.89-7.21,3.07-9s12.4-.92,18.65,1.81c2.77,1.2,3.86,1.26,4.51.2A79,79,0,0,0,50.2,17.95a2.22,2.22,0,0,0-.44-1.16c-1-1.33-6.56-3.31-11.72-4.2-4-.72-4.23-1-4.23-5.12,0-3.93-.44-5.6-1.57-6C30.8.9,22.77,1,22,1.58Z" transform="translate(-1.05 -1.09)"/></svg>