<svg width="24" height="24" viewBox="0 0 24 24" fill="none" xmlns="http://www.w3.org/2000/svg">
<path d="M12.24 10.285V14.4H19.046C18.771 16.165 16.99 19.574 12.24 19.574C8.14501 19.574 4.80101 16.185 4.80101 12C4.80101 7.815 8.14601 4.426 12.24 4.426C14.57 4.426 16.131 5.415 17.025 6.275L20.279 3.137C18.189 1.186 15.479 0 12.24 0C5.60501 0 0.240005 5.365 0.240005 12C0.240005 18.635 5.60501 24 12.24 24C19.166 24 23.76 19.131 23.76 12.274C23.76 11.486 23.675 10.884 23.571 10.285H12.24V10.285Z" fill="white"/>
</svg>
